PathFileType	4	(X/Y/Z)	C:/Users/beibeiliu/ov580/test_trc/User1\sequence.33_training_dense_right.trc
DataRate	CameraRate	NumFrames	NumMarkers	Units	OrigDataRate	OrigDataStartFrame	OrigNumFrames
120	120	8	19	mm	120	66	260
Frame#	Time	ThumbCMC			ThumbMCP			ThumbIP			ThumbTip			IndexMCP			IndexPIP			IndexTip			MiddleMCP			MiddlePIP			MiddleTip			RingMCP			RingPIP			RingTip			PinkyMCP			PinkyPIP			PinkyTip			BackHand1			BackHand2			BackHand3	
		X0	Y0	Z0	X1	Y1	Z1	X2	Y2	Z2	X3	Y3	Z3	X4	Y4	Z4	X5	Y5	Z5	X6	Y6	Z6	X7	Y7	Z7	X8	Y8	Z8	X9	Y9	Z9	X10	Y10	Z10	X11	Y11	Z11	X12	Y12	Z12	X13	Y13	Z13	X14	Y14	Z14	X15	Y15	Z15	X16	Y16	Z16	X17	Y17	Z17	X18	Y18	Z18	
65	0.541667	140.762	-35.7805	40.0911	121.77	-55.8473	15.5042	110.048	-64.371	-7.62834	103.252	-79.075	-26.5927	157.258	-47.6335	-38.5995	139.612	-75.3918	-52.5946	121.528	-95.8678	-42.0594	178.033	-72.126	-45	154.904	-92.2366	-53.5852	127.656	-107.009	-34.446	194.575	-82.8942	-35.7052	175.914	-102.98	-53.6646	148.623	-118.303	-45.1281	210.871	-100.001	-11.0912	211.473	-115.902	-30.6142	206.607	-124.493	-51.5717	207.462	-60.5344	24.1622	205.962	-53.8366	58.872	187.034	-31.3065	31.3698	
66	0.55	140.088	-35.4792	41.3419	121.16	-55.7372	18.3273	110.292	-64.686	-9.41356	105.699	-79.2005	-26.6746	156.151	-50.5647	-38.7919	138.432	-70.0174	-52.5143	117.581	-96.9297	-39.3449	178.021	-67.8138	-40.7524	154.399	-91.3016	-53.36	127.702	-110.595	-31.061	196.215	-84.0224	-35.97	175.66	-105.171	-52.9767	151.323	-118.088	-45.1005	211.823	-98.6972	-8.71788	212.355	-110.144	-25.8592	208.987	-126.384	-50.4284	209.781	-61.0049	22.3053	207.384	-55.2565	57.7072	184.621	-31.4498	35.7956	
67	0.558333	139.043	-34.4527	43.2934	121.117	-55.1092	18.3841	114.771	-65.9375	-8.20053	104.54	-78.4598	-25.3501	156.246	-48.92	-37.5161	136.917	-70.5378	-50.8296	121.021	-97.2013	-38.1071	173.634	-66.101	-42.7589	155.363	-89.8784	-52.7011	130.814	-110.199	-33.6331	198.02	-80.4768	-30.4091	179.071	-100.02	-51.6445	153.441	-117.654	-44.1319	212.841	-98.6168	-5.93777	211.998	-109.754	-30.2338	210.761	-122.373	-49.3233	207.426	-57.9769	26.4683	209.552	-53.7818	61.7815	182.891	-28.1079	34.1972	
68	0.566667	139.813	-34.7405	44.0975	122.64	-54.0701	20.7735	109.547	-63.4004	-6.73013	103.882	-76.5329	-25.8995	157.694	-46.4222	-35.0577	141.95	-69.8096	-50.9181	120.53	-92.4762	-39.7663	177.191	-67.3368	-43.0278	156.293	-88.8675	-51.9045	130.609	-109.707	-33.6469	198.743	-80.6461	-31.6547	178.689	-97.9638	-51.3479	150.456	-116.69	-44.4583	212.248	-96.2437	-7.83628	211.851	-105.759	-25.2952	208.96	-120.142	-52.3235	206.406	-54.9678	26.7591	208.814	-52.1059	58.4144	186.234	-30.1733	35.0996	
69	0.575	145.083	-34.5386	40.5876	124.05	-51.4329	19.2902	113.423	-60.9498	-9.7132	105.419	-73.5619	-24.6716	154.576	-44.4143	-38.9711	139.084	-66.8695	-51.6236	120.322	-90.1801	-40.6732	176.749	-63.2307	-41.7599	153.588	-85.0764	-53.0501	131.148	-109.008	-32.3306	198.308	-78.0751	-30.8911	178.612	-95.321	-51.3366	153.601	-117.654	-43.5099	211.287	-94.3261	-10.9163	214.034	-108.939	-24.3786	209.937	-120.446	-48.2184	209.628	-56.3599	23.7651	206.514	-48.2751	60.6298	183.375	-27.1491	38.3531	
70	0.583333	146	-31.7395	42.207	124.556	-48.6109	16.1653	110.997	-56.2286	-9.33882	104.243	-69.465	-28.0504	157.759	-46.0504	-40.6446	138.36	-65.123	-52.0114	115.427	-88.1283	-38.7167	179.499	-65.0761	-41.249	153.272	-81.6507	-53.5638	129.823	-104.686	-34.2015	195.751	-76.7349	-31.9878	177.509	-94.8331	-52.9353	149.476	-111.208	-46.7535	210.935	-95.0158	-11.5868	210.613	-110.416	-29.5448	206.845	-117.49	-50.3047	208.996	-58.2146	22.2468	208.347	-50.9489	55.6425	188.848	-26.1495	34.6969	
71	0.591667	148.073	-27.4206	39.3808	122.27	-40.4846	16.6036	115.675	-53.6488	-10.677	103.641	-65.3694	-30.8715	159.426	-41.9496	-39.6058	139.164	-65.6961	-50.9701	117.158	-81.6095	-41.2659	175.084	-63.0206	-43.6895	151.607	-80.5193	-53.8785	121.13	-98.239	-32.7061	194.612	-79.4395	-33.4883	176.648	-98.759	-50.7261	143.994	-111.069	-45.3518	207.394	-97.7656	-7.20506	206.947	-108.366	-27.4932	201.03	-119.972	-48.5517	210.797	-58.545	25.5581	207.981	-51.3761	60.9001	188.641	-27.3879	37.6645	
72	0.6	151.993	-22.5426	41.679	126.247	-35.6663	12.8165	117.059	-47.1113	-11.6064	105.601	-59.2847	-29.6361	165.046	-41.2708	-37.7528	138.554	-61.8113	-51.4424	115.311	-79.0099	-39.9953	177.021	-64.2778	-41.8124	149.917	-82.1919	-52.311	120.378	-91.6721	-35.5812	194.072	-80.5692	-30.7399	169.587	-95.8283	-51.7819	141.43	-109.44	-43.8476	202.793	-98.3462	-5.77056	198.937	-113.293	-29.0512	192.741	-126.998	-50.768	210.042	-61.2102	26.1132	210.463	-55.8492	56.5412	192.448	-26.1201	32.1972	
